<?xml version="1.0" encoding="UTF-8" standalone="no"?>
<!DOCTYPE svg PUBLIC "-//W3C//DTD SVG 1.1//EN"
 "http://www.w3.org/Graphics/SVG/1.1/DTD/svg11.dtd">
<!-- Generated by graphviz version 14.0.2 (20251019.1705)
 -->
<!-- Title: Azure Landing Zone – STRICT (matches current repo) Pages: 1 -->
<svg width="939pt" height="767pt"
 viewBox="0.00 0.00 939.00 767.00" xmlns="http://www.w3.org/2000/svg" xmlns:xlink="http://www.w3.org/1999/xlink">
<g id="graph0" class="graph" transform="scale(1 1) rotate(0) translate(28.8 738.3)">
<title>Azure Landing Zone – STRICT (matches current repo)</title>
<polygon fill="#0b1221" stroke="none" points="-28.8,28.8 -28.8,-738.3 910.45,-738.3 910.45,28.8 -28.8,28.8"/>
<text xml:space="preserve" text-anchor="middle" x="440.82" y="-9.25" font-family="Sans-Serif" font-size="15.00" fill="#2d3436">Azure Landing Zone – STRICT (matches current repo)</text>
<g id="clust1" class="cluster">
<title>cluster_Management &amp; Governance</title>
<path fill="#e5f5fd" stroke="#aeb6be" d="M284.55,-279.5C284.55,-279.5 421.3,-279.5 421.3,-279.5 427.3,-279.5 433.3,-285.5 433.3,-291.5 433.3,-291.5 433.3,-689.5 433.3,-689.5 433.3,-695.5 427.3,-701.5 421.3,-701.5 421.3,-701.5 284.55,-701.5 284.55,-701.5 278.55,-701.5 272.55,-695.5 272.55,-689.5 272.55,-689.5 272.55,-291.5 272.55,-291.5 272.55,-285.5 278.55,-279.5 284.55,-279.5"/>
<text xml:space="preserve" text-anchor="middle" x="352.92" y="-686.1" font-family="Sans-Serif" font-size="12.00" fill="#2d3436">Management &amp; Governance</text>
</g>
<g id="clust2" class="cluster">
<title>cluster_Platform Subscription (connectivity)</title>
<path fill="#e5f5fd" stroke="#aeb6be" d="M298.02,-35.5C298.02,-35.5 693.85,-35.5 693.85,-35.5 699.85,-35.5 705.85,-41.5 705.85,-47.5 705.85,-47.5 705.85,-239.5 705.85,-239.5 705.85,-245.5 699.85,-251.5 693.85,-251.5 693.85,-251.5 298.02,-251.5 298.02,-251.5 292.02,-251.5 286.02,-245.5 286.02,-239.5 286.02,-239.5 286.02,-47.5 286.02,-47.5 286.02,-41.5 292.02,-35.5 298.02,-35.5"/>
<text xml:space="preserve" text-anchor="middle" x="388.15" y="-236.1" font-family="Sans-Serif" font-size="12.00" fill="#2d3436">Platform Subscription (connectivity)</text>
</g>
<g id="clust3" class="cluster">
<title>cluster_rg&#45;connectivity</title>
<path fill="#ebf3e7" stroke="#aeb6be" d="M306.02,-43.5C306.02,-43.5 685.85,-43.5 685.85,-43.5 691.85,-43.5 697.85,-49.5 697.85,-55.5 697.85,-55.5 697.85,-207.5 697.85,-207.5 697.85,-213.5 691.85,-219.5 685.85,-219.5 685.85,-219.5 306.02,-219.5 306.02,-219.5 300.02,-219.5 294.02,-213.5 294.02,-207.5 294.02,-207.5 294.02,-55.5 294.02,-55.5 294.02,-49.5 300.02,-43.5 306.02,-43.5"/>
<text xml:space="preserve" text-anchor="middle" x="341.02" y="-204.1" font-family="Sans-Serif" font-size="12.00" fill="#2d3436">rg&#45;connectivity</text>
</g>
<g id="clust4" class="cluster">
<title>cluster_LZ Subscription – App1 (spoke)</title>
<path fill="#e5f5fd" stroke="#aeb6be" d="M585.05,-260.5C585.05,-260.5 861.65,-260.5 861.65,-260.5 867.65,-260.5 873.65,-266.5 873.65,-272.5 873.65,-272.5 873.65,-464.5 873.65,-464.5 873.65,-470.5 867.65,-476.5 861.65,-476.5 861.65,-476.5 585.05,-476.5 585.05,-476.5 579.05,-476.5 573.05,-470.5 573.05,-464.5 573.05,-464.5 573.05,-272.5 573.05,-272.5 573.05,-266.5 579.05,-260.5 585.05,-260.5"/>
<text xml:space="preserve" text-anchor="middle" x="664.67" y="-461.1" font-family="Sans-Serif" font-size="12.00" fill="#2d3436">LZ Subscription – App1 (spoke)</text>
</g>
<g id="clust5" class="cluster">
<title>cluster_rg&#45;app1</title>
<path fill="#ebf3e7" stroke="#aeb6be" d="M593.05,-268.5C593.05,-268.5 853.65,-268.5 853.65,-268.5 859.65,-268.5 865.65,-274.5 865.65,-280.5 865.65,-280.5 865.65,-432.5 865.65,-432.5 865.65,-438.5 859.65,-444.5 853.65,-444.5 853.65,-444.5 593.05,-444.5 593.05,-444.5 587.05,-444.5 581.05,-438.5 581.05,-432.5 581.05,-432.5 581.05,-280.5 581.05,-280.5 581.05,-274.5 587.05,-268.5 593.05,-268.5"/>
<text xml:space="preserve" text-anchor="middle" x="610.05" y="-429.1" font-family="Sans-Serif" font-size="12.00" fill="#2d3436">rg&#45;app1</text>
</g>
<g id="clust6" class="cluster">
<title>cluster_LZ Subscription – App2 (spoke)</title>
<path fill="#e5f5fd" stroke="#aeb6be" d="M585.05,-484.5C585.05,-484.5 861.65,-484.5 861.65,-484.5 867.65,-484.5 873.65,-490.5 873.65,-496.5 873.65,-496.5 873.65,-688.5 873.65,-688.5 873.65,-694.5 867.65,-700.5 861.65,-700.5 861.65,-700.5 585.05,-700.5 585.05,-700.5 579.05,-700.5 573.05,-694.5 573.05,-688.5 573.05,-688.5 573.05,-496.5 573.05,-496.5 573.05,-490.5 579.05,-484.5 585.05,-484.5"/>
<text xml:space="preserve" text-anchor="middle" x="664.67" y="-685.1" font-family="Sans-Serif" font-size="12.00" fill="#2d3436">LZ Subscription – App2 (spoke)</text>
</g>
<g id="clust7" class="cluster">
<title>cluster_rg&#45;app2</title>
<path fill="#ebf3e7" stroke="#aeb6be" d="M593.05,-492.5C593.05,-492.5 853.65,-492.5 853.65,-492.5 859.65,-492.5 865.65,-498.5 865.65,-504.5 865.65,-504.5 865.65,-656.5 865.65,-656.5 865.65,-662.5 859.65,-668.5 853.65,-668.5 853.65,-668.5 593.05,-668.5 593.05,-668.5 587.05,-668.5 581.05,-662.5 581.05,-656.5 581.05,-656.5 581.05,-504.5 581.05,-504.5 581.05,-498.5 587.05,-492.5 593.05,-492.5"/>
<text xml:space="preserve" text-anchor="middle" x="610.05" y="-653.1" font-family="Sans-Serif" font-size="12.00" fill="#2d3436">rg&#45;app2</text>
</g>
<g id="clust8" class="cluster">
<title>cluster_Identity</title>
<path fill="#e5f5fd" stroke="#aeb6be" d="M20,-279.5C20,-279.5 112.8,-279.5 112.8,-279.5 118.8,-279.5 124.8,-285.5 124.8,-291.5 124.8,-291.5 124.8,-473.5 124.8,-473.5 124.8,-479.5 118.8,-485.5 112.8,-485.5 112.8,-485.5 20,-485.5 20,-485.5 14,-485.5 8,-479.5 8,-473.5 8,-473.5 8,-291.5 8,-291.5 8,-285.5 14,-279.5 20,-279.5"/>
<text xml:space="preserve" text-anchor="middle" x="36.25" y="-470.1" font-family="Sans-Serif" font-size="12.00" fill="#2d3436">Identity</text>
</g>
<!-- 0fb22bf7e96c4fd995c1e5c9e64cbe69 -->
<g id="node1" class="node">
<title>0fb22bf7e96c4fd995c1e5c9e64cbe69</title>
<text xml:space="preserve" text-anchor="middle" x="352.42" y="-527.35" font-family="Segoe UI" font-size="13.00" fill="#e6ecff">policy/assignments.tf</text>
<text xml:space="preserve" text-anchor="middle" x="352.42" y="-509.35" font-family="Segoe UI" font-size="13.00" fill="#e6ecff">(Policy &amp; Governance)</text>
</g>
<!-- b5559b1280b34cf4bcbd08163b902484 -->
<g id="node3" class="node">
<title>b5559b1280b34cf4bcbd08163b902484</title>
<image xlink:href="C:\Users\Administrator\AppData\Local\Programs\Python\Python314\Lib\site-packages\resources/azure/network\virtual-network-classic.png" width="100.8px" height="100.8px" preserveAspectRatio="xMinYMin meet" x="302.025" y="-169.9"/>
<text xml:space="preserve" text-anchor="middle" x="352.42" y="-56.75" font-family="Segoe UI" font-size="13.00" fill="#e6ecff">hub.tf → Hub VNet</text>
</g>
<!-- 0fb22bf7e96c4fd995c1e5c9e64cbe69&#45;&gt;b5559b1280b34cf4bcbd08163b902484 -->
<g id="edge6" class="edge">
<title>0fb22bf7e96c4fd995c1e5c9e64cbe69&#45;&gt;b5559b1280b34cf4bcbd08163b902484</title>
<path fill="none" stroke="#ffd166" d="M302.13,-526.84C257.51,-469.38 196.05,-377.84 173.84,-285.75 157.7,-218.84 234,-169.89 291.89,-143.06"/>
<polygon fill="#ffd166" stroke="#ffd166" points="293.04,-146.38 300.72,-139.08 290.16,-140 293.04,-146.38"/>
<text xml:space="preserve" text-anchor="middle" x="207.17" y="-273.4" font-family="Sans-Serif" font-size="13.00" fill="#2d3436">RBAC / Policy / Tags</text>
</g>
<!-- 43b70a007fde4b0e97119d5469afaa60 -->
<g id="node5" class="node">
<title>43b70a007fde4b0e97119d5469afaa60</title>
<image xlink:href="C:\Users\Administrator\AppData\Local\Programs\Python\Python314\Lib\site-packages\resources/azure/network\virtual-network-classic.png" width="100.8px" height="100.8px" preserveAspectRatio="xMinYMin meet" x="589.05" y="-394.9"/>
<text xml:space="preserve" text-anchor="middle" x="639.45" y="-281.75" font-family="Segoe UI" font-size="13.00" fill="#e6ecff">spoke.tf → Spoke VNet (App1)</text>
</g>
<!-- 0fb22bf7e96c4fd995c1e5c9e64cbe69&#45;&gt;43b70a007fde4b0e97119d5469afaa60 -->
<g id="edge7" class="edge">
<title>0fb22bf7e96c4fd995c1e5c9e64cbe69&#45;&gt;43b70a007fde4b0e97119d5469afaa60</title>
<path fill="none" stroke="#ffd166" d="M402.77,-559.07C445.83,-533.81 508.67,-493.64 556.05,-449.5 565.23,-440.95 574.21,-431.32 582.67,-421.45"/>
<polygon fill="#ffd166" stroke="#ffd166" points="585.26,-423.81 588.99,-413.89 579.89,-419.32 585.26,-423.81"/>
<text xml:space="preserve" text-anchor="middle" x="498.67" y="-537.26" font-family="Sans-Serif" font-size="13.00" fill="#2d3436">RBAC / Policy / Tags</text>
</g>
<!-- 7b25851743194e9688ff7bab13973be5 -->
<g id="node7" class="node">
<title>7b25851743194e9688ff7bab13973be5</title>
<image xlink:href="C:\Users\Administrator\AppData\Local\Programs\Python\Python314\Lib\site-packages\resources/azure/network\virtual-network-classic.png" width="100.8px" height="100.8px" preserveAspectRatio="xMinYMin meet" x="589.05" y="-618.9"/>
<text xml:space="preserve" text-anchor="middle" x="639.45" y="-505.75" font-family="Segoe UI" font-size="13.00" fill="#e6ecff">spoke.tf → Spoke VNet (App2)</text>
</g>
<!-- 0fb22bf7e96c4fd995c1e5c9e64cbe69&#45;&gt;7b25851743194e9688ff7bab13973be5 -->
<g id="edge8" class="edge">
<title>0fb22bf7e96c4fd995c1e5c9e64cbe69&#45;&gt;7b25851743194e9688ff7bab13973be5</title>
<path fill="none" stroke="#ffd166" d="M402.75,-583.39C451.33,-580.32 525.65,-575.62 577.82,-572.33"/>
<polygon fill="#ffd166" stroke="#ffd166" points="577.98,-575.83 587.74,-571.7 577.54,-568.84 577.98,-575.83"/>
<text xml:space="preserve" text-anchor="middle" x="498.67" y="-584.83" font-family="Sans-Serif" font-size="13.00" fill="#2d3436">RBAC / Policy / Tags</text>
</g>
<!-- ac8c66ffdbac4ecbbd7d7bc684787759 -->
<g id="node2" class="node">
<title>ac8c66ffdbac4ecbbd7d7bc684787759</title>
<image xlink:href="C:\Users\Administrator\AppData\Local\Programs\Python\Python314\Lib\site-packages\resources/azure/analytics\log-analytics-workspaces.png" width="100.8px" height="100.8px" preserveAspectRatio="xMinYMin meet" x="302.025" y="-420.9"/>
<text xml:space="preserve" text-anchor="middle" x="352.42" y="-311.35" font-family="Segoe UI" font-size="13.00" fill="#e6ecff">management/loganalytics.tf</text>
<text xml:space="preserve" text-anchor="middle" x="352.42" y="-293.35" font-family="Segoe UI" font-size="13.00" fill="#e6ecff">(Log Analytics)</text>
</g>
<!-- b5559b1280b34cf4bcbd08163b902484&#45;&gt;ac8c66ffdbac4ecbbd7d7bc684787759 -->
<g id="edge10" class="edge">
<title>b5559b1280b34cf4bcbd08163b902484&#45;&gt;ac8c66ffdbac4ecbbd7d7bc684787759</title>
<path fill="none" stroke="#74c69d" stroke-dasharray="5,2" d="M352.42,-187.76C352.42,-215.17 352.42,-247.23 352.42,-276.77"/>
<polygon fill="#74c69d" stroke="#74c69d" points="348.93,-276.44 352.43,-286.44 355.93,-276.44 348.93,-276.44"/>
<text xml:space="preserve" text-anchor="middle" x="341.17" y="-233.7" font-family="Sans-Serif" font-size="13.00" fill="#2d3436">diagnostics</text>
</g>
<!-- 40fbf9953e6c47be877ff0676b943982 -->
<g id="node4" class="node">
<title>40fbf9953e6c47be877ff0676b943982</title>
<image xlink:href="C:\Users\Administrator\AppData\Local\Programs\Python\Python314\Lib\site-packages\resources/azure/network\subnets.png" width="100.8px" height="100.8px" preserveAspectRatio="xMinYMin meet" x="589.05" y="-169.9"/>
<text xml:space="preserve" text-anchor="middle" x="639.45" y="-56.75" font-family="Segoe UI" font-size="13.00" fill="#e6ecff">hub subnets</text>
</g>
<!-- b5559b1280b34cf4bcbd08163b902484&#45;&gt;40fbf9953e6c47be877ff0676b943982 -->
<g id="edge3" class="edge">
<title>b5559b1280b34cf4bcbd08163b902484&#45;&gt;40fbf9953e6c47be877ff0676b943982</title>
<path fill="none" stroke="#8aa0ff" d="M402.75,-119.5C451.33,-119.5 525.65,-119.5 577.82,-119.5"/>
<polygon fill="#8aa0ff" stroke="#8aa0ff" points="577.74,-123 587.74,-119.5 577.74,-116 577.74,-123"/>
</g>
<!-- b5559b1280b34cf4bcbd08163b902484&#45;&gt;43b70a007fde4b0e97119d5469afaa60 -->
<g id="edge1" class="edge">
<title>b5559b1280b34cf4bcbd08163b902484&#45;&gt;43b70a007fde4b0e97119d5469afaa60</title>
<path fill="none" stroke="#8aa0ff" d="M402.71,-130.77C455.22,-143.65 533.82,-165.72 556.05,-187 571.34,-201.64 563.94,-212.39 573.05,-231.5 580.07,-246.23 588.32,-261.62 596.54,-276.12"/>
<text xml:space="preserve" text-anchor="middle" x="498.67" y="-191.15" font-family="Sans-Serif" font-size="13.00" fill="#2d3436">peering</text>
</g>
<!-- b5559b1280b34cf4bcbd08163b902484&#45;&gt;7b25851743194e9688ff7bab13973be5 -->
<g id="edge2" class="edge">
<title>b5559b1280b34cf4bcbd08163b902484&#45;&gt;7b25851743194e9688ff7bab13973be5</title>
<path fill="none" stroke="#8aa0ff" d="M402.45,-172.26C414.92,-185.28 428.44,-199.06 441.3,-211.5 490.46,-259.04 524.46,-253.35 556.05,-314 585.52,-370.57 552.77,-396.03 573.05,-456.5 577.99,-471.23 585.02,-486.16 592.65,-500.1"/>
<text xml:space="preserve" text-anchor="middle" x="498.67" y="-318.15" font-family="Sans-Serif" font-size="13.00" fill="#2d3436">peering</text>
</g>
<!-- 43b70a007fde4b0e97119d5469afaa60&#45;&gt;ac8c66ffdbac4ecbbd7d7bc684787759 -->
<g id="edge11" class="edge">
<title>43b70a007fde4b0e97119d5469afaa60&#45;&gt;ac8c66ffdbac4ecbbd7d7bc684787759</title>
<path fill="none" stroke="#74c69d" stroke-dasharray="5,2" d="M589.21,-342.67C549.19,-341.9 491.36,-342.38 441.3,-349 432.33,-350.18 422.95,-351.92 413.8,-353.91"/>
<polygon fill="#74c69d" stroke="#74c69d" points="413.23,-350.45 404.27,-356.09 414.8,-357.27 413.23,-350.45"/>
<text xml:space="preserve" text-anchor="middle" x="498.67" y="-353.15" font-family="Sans-Serif" font-size="13.00" fill="#2d3436">diagnostics</text>
</g>
<!-- 1134c5c9b89c489bb5a16853c0d7c84f -->
<g id="node6" class="node">
<title>1134c5c9b89c489bb5a16853c0d7c84f</title>
<image xlink:href="C:\Users\Administrator\AppData\Local\Programs\Python\Python314\Lib\site-packages\resources/azure/network\subnets.png" width="100.8px" height="100.8px" preserveAspectRatio="xMinYMin meet" x="756.85" y="-394.9"/>
<text xml:space="preserve" text-anchor="middle" x="807.25" y="-281.75" font-family="Segoe UI" font-size="13.00" fill="#e6ecff">spoke subnets</text>
</g>
<!-- 43b70a007fde4b0e97119d5469afaa60&#45;&gt;1134c5c9b89c489bb5a16853c0d7c84f -->
<g id="edge4" class="edge">
<title>43b70a007fde4b0e97119d5469afaa60&#45;&gt;1134c5c9b89c489bb5a16853c0d7c84f</title>
<path fill="none" stroke="#8aa0ff" d="M689.75,-344.5C707.21,-344.5 727.07,-344.5 745.39,-344.5"/>
<polygon fill="#8aa0ff" stroke="#8aa0ff" points="745.34,-348 755.34,-344.5 745.34,-341 745.34,-348"/>
</g>
<!-- 7b25851743194e9688ff7bab13973be5&#45;&gt;ac8c66ffdbac4ecbbd7d7bc684787759 -->
<g id="edge12" class="edge">
<title>7b25851743194e9688ff7bab13973be5&#45;&gt;ac8c66ffdbac4ecbbd7d7bc684787759</title>
<path fill="none" stroke="#74c69d" stroke-dasharray="5,2" d="M598.14,-500.3C589.75,-485.89 581.04,-470.73 573.05,-456.5 565.26,-442.63 568.53,-434.87 556.05,-425 515.4,-392.84 457.34,-379.59 413.79,-374.17"/>
<polygon fill="#74c69d" stroke="#74c69d" points="414.31,-370.71 403.98,-373.07 413.53,-377.66 414.31,-370.71"/>
<text xml:space="preserve" text-anchor="middle" x="498.67" y="-429.15" font-family="Sans-Serif" font-size="13.00" fill="#2d3436">diagnostics</text>
</g>
<!-- 183ef2b2d9ab44178050d2f1ee0db410 -->
<g id="node8" class="node">
<title>183ef2b2d9ab44178050d2f1ee0db410</title>
<image xlink:href="C:\Users\Administrator\AppData\Local\Programs\Python\Python314\Lib\site-packages\resources/azure/network\subnets.png" width="100.8px" height="100.8px" preserveAspectRatio="xMinYMin meet" x="756.85" y="-618.9"/>
<text xml:space="preserve" text-anchor="middle" x="807.25" y="-505.75" font-family="Segoe UI" font-size="13.00" fill="#e6ecff">spoke subnets</text>
</g>
<!-- 7b25851743194e9688ff7bab13973be5&#45;&gt;183ef2b2d9ab44178050d2f1ee0db410 -->
<g id="edge5" class="edge">
<title>7b25851743194e9688ff7bab13973be5&#45;&gt;183ef2b2d9ab44178050d2f1ee0db410</title>
<path fill="none" stroke="#8aa0ff" d="M689.75,-568.5C707.21,-568.5 727.07,-568.5 745.39,-568.5"/>
<polygon fill="#8aa0ff" stroke="#8aa0ff" points="745.34,-572 755.34,-568.5 745.34,-565 745.34,-572"/>
</g>
<!-- fcb9db2859e9416a9d6dcbb0c93c13c1 -->
<g id="node9" class="node">
<title>fcb9db2859e9416a9d6dcbb0c93c13c1</title>
<image xlink:href="C:\Users\Administrator\AppData\Local\Programs\Python\Python314\Lib\site-packages\resources/azure/security\key-vaults.png" width="100.8px" height="100.8px" preserveAspectRatio="xMinYMin meet" x="16" y="-420.9"/>
<text xml:space="preserve" text-anchor="middle" x="66.4" y="-311.35" font-family="Segoe UI" font-size="13.00" fill="#e6ecff">identity/keyvault.tf</text>
<text xml:space="preserve" text-anchor="middle" x="66.4" y="-293.35" font-family="Segoe UI" font-size="13.00" fill="#e6ecff">(Key Vault)</text>
</g>
<!-- fcb9db2859e9416a9d6dcbb0c93c13c1&#45;&gt;ac8c66ffdbac4ecbbd7d7bc684787759 -->
<g id="edge9" class="edge">
<title>fcb9db2859e9416a9d6dcbb0c93c13c1&#45;&gt;ac8c66ffdbac4ecbbd7d7bc684787759</title>
<path fill="none" stroke="#74c69d" stroke-dasharray="5,2" d="M116.55,-370.5C164.96,-370.5 239.02,-370.5 291.01,-370.5"/>
<polygon fill="#74c69d" stroke="#74c69d" points="290.89,-374 300.89,-370.5 290.89,-367 290.89,-374"/>
<text xml:space="preserve" text-anchor="middle" x="207.17" y="-374.65" font-family="Sans-Serif" font-size="13.00" fill="#2d3436">diagnostics</text>
</g>
</g>
</svg>
